<svg version="1.0" xmlns="http://www.w3.org/2000/svg" width="682.667" height="682.667" viewBox="0 0 512 512"><path d="M100 2.6c-9.4 1.7-17.2 3.5-18.5 4.3-.5.3-1.9.7-2.9.8-1.1.2-2.5.8-3.3 1.4-.7.6-1.3.9-1.3.6 0-1.1-16.5 7.6-23.6 12.5C43.9 26.7 24.8 45 26.7 45c.4 0 .3.4-.2.8-2 1.4-7.2 8.7-10.1 14.2-1.6 3-3.3 5.8-3.9 6.2-.5.4-.6.8-.1.8s.4.6-.1 1.2C11.1 69.8 7.7 78.9 5.6 86c-1.5 5.3-1.9 7.1-3.3 15.5-.4 2.2-.7 11.6-.6 21 .2 16.2 1.4 24.4 5.6 39 1.8 6 2 6.6 5.1 13.7.9 2 1.6 4.1 1.6 4.7 0 .6.5 1.1 1 1.1.6 0 .9.4.8.8-.4 1 3.4 8.6 4.4 9 .5.2.8.8.8 1.4 0 .5 1.4 2.9 3 5.3 1.7 2.4 3 4.6 3 5 0 .3 1.1 1.7 2.4 3 1.4 1.4 3.3 3.8 4.2 5.4C36 215 55 233.5 62.5 239c3.3 2.5 6.2 4.7 6.5 5 .3.3 1.6 1.1 2.9 1.8 1.3.8 4 2.3 6 3.4 4 2.3 14.6 7.6 20.1 10.1 4.3 1.9 18.3 6.3 23 7.2 1.9.3 4.4.8 5.5 1 1.1.2 2 .4 2 .5 0 .1 3.1.6 10.5 1.5 6 .7 22.6.7 27.1 0 2-.3 5.1-.8 7-1 1.9-.2 4.9-.8 6.7-1.4 1.7-.5 3.2-.8 3.2-.6 0 .2 1.5-.2 3.3-1 1.7-.7 3.4-1.3 3.7-1.3.6-.1 5.1-1.7 11.8-4.4 5.9-2.3 22.5-12.4 23-13.9.2-.6 20.8 19.4 45.8 44.4 25 25 45.6 45.2 45.9 44.9.3-.3.5-.1.5.5 0 .5 15 16 33.4 34.4 31.4 31.5 33.4 33.6 34 37.8.4 2.4 1.3 5.6 2.2 7.3.8 1.6 21.9 23.3 46.7 48.2 49.7 49.8 49.2 49.4 59.7 48.3 14.7-1.6 23.2-17.7 16.4-30.9-2.2-4.2-89.9-92-94-94.1-1.8-.9-5.1-1.9-7.5-2.3-4.2-.7-7.3-3.6-76.9-73.4-39.9-40-75.3-75.8-78.7-79.5l-6.1-6.6 3.8-5.8c4.3-6.4 11.3-20.8 13.6-27.9.8-2.6 1.8-5.4 2.1-6.2.3-.8.8-3.1 1-5 .2-1.9.9-3.7 1.5-4.1.7-.4.7-.9-.1-1.3-.7-.5-.8-1.3-.2-2.5.6-.9.8-2.6.7-3.7-.2-1 0-2.4.5-2.9.4-.6.6-7.8.4-16-.4-15-.5-17.3-1.8-23-.4-1.7-.9-4.1-1.1-5.5-.9-4.5-1.4-6.4-3.9-13.7-1.4-4-2.2-7.4-1.9-7.7.3-.4 0-.6-.6-.6-.7 0-1.2-.6-1.2-1.3 0-1.8-7.1-16.3-10.4-21.2-1.4-2.2-3.2-4.8-3.9-5.9-.6-1-1.7-2.4-2.4-3.1-.7-.7-.9-1.5-.6-1.9.3-.3-.2-.8-1.1-1.2-.9-.3-1.6-1-1.6-1.6 0-.5-.6-1.6-1.2-2.3-.7-.8-3.3-3.7-5.8-6.6-2.5-2.8-6.3-6.8-8.4-8.8-2.2-2-5.1-4.7-6.6-6.1-1.4-1.4-4.3-3.8-6.5-5.5-2.2-1.6-4.9-3.7-5.9-4.7-1.1-1-2.6-1.8-3.5-1.8-.8 0-1.1-.3-.8-.6.4-.4-1.9-2-5.1-3.7-3.1-1.6-6-3.4-6.3-3.9-.3-.5-1.4-1-2.5-1.2-1-.2-4-1.5-6.6-2.9-2.7-1.4-4.8-2.3-4.8-2 0 .3-.6.1-1.2-.4-1.2-1-17.4-6.6-18-6.3-.2.1-1.6-.3-3.1-.9-1.6-.6-5.2-1.4-8-1.7-2.9-.4-5.6-.9-6-1.1-2-1.2-31.6-1-38.7.3zm12.4 28.3l2.8 2.9-10.1 10-10.1 10-8.4-8.7c-6.7-6.7-8.2-8.8-7-9.4 2.6-1.5 14.8-5.5 18.2-6 1.9-.3 3.6-.7 3.8-1 .2-.2 2.1-.4 4.2-.5 3-.1 4.4.4 6.6 2.7zM153 33c3.6 1.2 7.4 2.5 8.5 3 1.1.5 3.2 1.4 4.8 2 1.5.5 2.7 1.3 2.7 1.7 0 1.1-12.5 13.3-13.6 13.3-1 0-19.4-18.5-19.4-19.5 0-2.5 6.1-4.7 9-3.3.8.4 4.4 1.7 8 2.8zM75 53.9l9.9 9.9L75 73.9l-9.9 10L55 74c-11.3-11.2-11-9.9-4-17.6 3.6-4 12.9-12.4 13.7-12.4.2 0 4.9 4.5 10.3 9.9zm69 11c-.5.9-4.9 5.5-9.7 10.3l-8.8 8.7-9.5-9.3c-5.2-5.2-9.6-9.8-9.8-10.4-.1-.5 4.1-5.3 9.4-10.6l9.7-9.7 9.8 9.7c7.6 7.5 9.6 10.1 8.9 11.3zm42.7-15.7c1.6 1.3 4.2 3.2 5.7 4.3 1.6 1.1 5 4.1 7.7 6.6 4.9 4.5 4.9 4.6 3.1 6.7-1.1 1.2-2.2 1.9-2.5 1.5-.4-.3-1 .2-1.4 1.2-.3 1-3.6 4.7-7.2 8.1l-6.6 6.3-9.8-10-9.9-9.9 8.3-8.5c4.5-4.7 8.6-8.5 8.9-8.5.3 0 2 1 3.7 2.2zm-81.5 55l-10 10.1-10-10.2-10.1-10.2L85.2 84l10.1-9.9 10 10 10 10-10.1 10.1zM175 94c0 .3-3.6 4.2-8 8.6-4.4 4.5-8 7.9-8 7.6 0-.2-.8.6-1.8 1.8l-1.8 2.3-9.7-9.8c-5.3-5.4-9.7-10.1-9.7-10.5 0-.3 3.8-4.3 8.4-8.8 4.6-4.4 8.1-8.4 7.8-8.7-.3-.3.2-.5 1.1-.5 1 0 1.7-.6 1.7-1.2 0-.7 4.5 3.2 10 8.7 5.5 5.5 10 10.2 10 10.5zm47.2-9c.7 1.4 1.9 3.1 2.6 3.8.6.7 1.2 2 1.2 2.8 0 .8.4 1.4.9 1.4.7 0 3.1 5.1 3.1 6.7 0 .2-3.2 3.5-7.2 7.3l-7.1 7-7.4-7.5c-4.1-4.1-7.9-7.5-8.5-7.5-.6 0-.9-.3-.5-.6.3-.3-.3-1.4-1.4-2.5-1.8-1.8-1.7-2 7.4-11.3l9.2-9.4 3.2 3.7c1.7 2 3.8 4.7 4.5 6.1zm-176.1.4l8.6 8.5-9.9 10.1-9.8 10-3.2-3c-3-2.9-4.9-8-3-8 .5 0 .8-1 .7-2.3-.1-1.2.2-3.2.6-4.5.5-1.3 1.1-3.6 1.4-5.1.5-2.7 5.1-14.1 5.8-14.1.1 0 4.1 3.8 8.8 8.4zm20.4 20.7c-.4.5-.2.9.3.9.4 0 4.8 3.9 9.6 8.7l8.7 8.7-10 9.9-10 10L55 134.2l-10-10 10.1-10.1c5.5-5.6 10.5-9.9 11-9.5.5.3.7 1 .4 1.5zm69.3 8.5l9.5 9.6-10 10-10.1 10.1-9.6-9.6c-5.3-5.3-9.6-10-9.6-10.4 0-1 18.3-19.2 19.4-19.3.4 0 5.1 4.3 10.4 9.6zM189 107c.3.5 4.1 4.5 8.3 8.9 4.2 4.3 7.7 8.1 7.7 8.5 0 .3-4.4 5-9.7 10.3-5.4 5.3-9.8 9.7-9.9 9.7-.3.4-3.4-3.5-3.4-4.3 0-.6-.4-1.1-.8-1.1-.5 0-3.4-2.5-6.4-5.5-10.2-10.2-10.2-8 .4-18.8 9-9.2 11.9-10.8 13.8-7.7zm49.5 11.8c.7 2.3 1.1 4.2.8 4.2-.3 0-.1.6.4 1.2.9 1.2 1.6 4.2 3 13.7.5 3.4.4 3.4-8.2-5l-8.7-8.6 4.8-5.1c2.7-2.8 5.3-5 5.8-4.8.5.1 1.5 2.1 2.1 4.4zM45.2 144.7l9.7 9.8-7.7 7.8-7.8 7.8-2.1-4.8c-3.3-7.5-5.6-14.7-6.7-21-.1-.7-.5-1.5-.9-1.9-1.1-1.2 2.8-7.3 4.8-7.4.6 0 5.4 4.4 10.7 9.7zm60.3-.1l9.6 9.6-4.6 4.9c-2.5 2.7-4.7 4.9-5 4.9-.2 0-2.6 2.4-5.3 5.2l-5 5.2-9.7-9.6c-8.1-8.1-9.5-10-8.7-11.5 1.1-2 17.6-18.3 18.5-18.3.3 0 4.9 4.3 10.2 9.6zm60.2-.1c8.5 8.5 9.4 9.7 8.2 11.2-1.9 2.4-17.9 18.3-18.4 18.3s-16.6-16-18.3-18.2c-1.2-1.6-.4-2.8 8-11.2 5.1-5.2 9.7-9.5 10.1-9.6.5 0 5.2 4.3 10.4 9.5zm60-.3c5.1 5.1 9.3 9.7 9.3 10.1 0 .5-4.3 5.2-9.5 10.4-11 11.1-8.2 11.4-21.6-2.1-4.3-4.3-7.6-8.3-7.2-8.9 1.3-2.1 17.8-18.6 18.7-18.6.6-.1 5.2 4.1 10.3 9.1zM75.2 174.7l9.7 9.8-10 10.1-10 10.1-2.5-2c-2.1-1.6-5.7-5.7-13.4-15.3-.5-.7-.6-1.5-.3-1.8.4-.3.1-.6-.5-.6-.7 0-1.2-.5-1.2-1.1 0-1.1 16.9-18.9 18-18.9.3 0 4.9 4.4 10.2 9.7zm58.9-1.4c4.6 4.6 9 9 9.7 9.9 1 1.3-.2 3-8.3 11.2-5.2 5.3-9.7 9.6-10 9.6-.3 0-5-4.4-10.4-9.7l-9.8-9.7 9.6-9.8c5.3-5.3 9.8-9.7 10.2-9.7.3-.1 4.3 3.6 9 8.2zm61.5 1.2c5.2 5.1 9.4 9.7 9.4 10.1 0 .9-18.6 19.4-19.5 19.4-.7 0-19.5-18.8-19.5-19.5 0-.8 18.5-19.4 19.3-19.4.5-.1 5.1 4.2 10.3 9.4zm45.9-1.3c-.4 2.4-1.1 4.8-1.7 5.5-.5.7-.7 1.7-.3 2.3.3.5.1 1-.5 1s-.9.4-.6.8c.3.5-.1 2-.9 3.5-.7 1.4-1.1 2.8-.7 3.1.3.3 0 .6-.7.6s-1 .4-.6.9c.3.5.2 1.2-.3 1.4-1 .7-8.2-5.8-8.2-7.4 0-1.1 13.8-15.9 14.8-15.9.2 0 0 1.9-.3 4.2zm-136.1 31.7l9.9 9.9-8.1 8c-5.7 5.5-8.4 7.6-9.1 6.9-.6-.6-1.1-.8-1.1-.4 0 .8-12.9-7.3-18.3-11.6l-3.8-3 9.8-9.8c5.4-5.4 10-9.8 10.3-9.9.3 0 5 4.5 10.4 9.9zm60.1-.3c5.2 5.3 9.5 9.9 9.5 10.3 0 .8-18.6 19.1-19.5 19.1-.8 0-19.5-18.5-19.5-19.4 0-.8 18.2-19.4 19.2-19.5.5-.1 5.1 4.2 10.3 9.5zm55.1-5.2c2.4 2.4 4.4 4.7 4.4 5.2 0 1.1-18.2 19.4-19.2 19.4-.4 0-2.8-2.1-5.4-4.6l-4.6-4.7 9.8-9.8c5.4-5.5 10-9.9 10.3-9.9.2 0 2.3 2 4.7 4.4zm-78.4 42.9c-.2.4-1.8.5-3.5.2-8.8-1.2-14.2-2.2-14.2-2.6 0-.1-3.4-.8-6.2-1.1-.7-.1-1.3-.5-1.3-.9s-.8-.9-1.7-1.1c-1.3-.2-.3-1.7 4.1-6.1l5.8-5.9 8.7 8.4c4.8 4.5 8.5 8.6 8.3 9.1zm48.5-12.8l4.3 4.6-4.2 1.9c-2.3 1-4.6 1.6-5 1.4-.4-.3-.8 0-.8.5 0 .6-.8 1.1-1.8 1.1s-2.2.3-2.6.7c-.3.4-1.4.8-2.4.9-2.3.3-5.3 1.1-7.4 1.9-1 .4-1.8.3-1.8-.1 0-.8 16.1-17.3 16.9-17.4.3 0 2.4 2 4.8 4.5zM320 38.8c-6.1 2.1-14.1 10.3-16.3 16.6-4.1 11.9-1.4 21.8 8.7 32.3 3.8 4 7.3 7 7.8 6.7.7-.5 1.2 1 .9 2.8 0 .5.3.8.7.8.4 0 2.7 1.8 5.1 4 2.3 2.2 4 4 3.7 4-.3 0 1.6 4.2 4.3 9.2 2.6 5.1 8 15.4 11.9 22.8 9.4 18.1 10.6 20.4 11.2 21 .6.6 5 8.6 6.5 11.7.5 1.3 1.3 2.3 1.8 2.3.4 0 .7.5.7 1 0 1 20.9 36.2 25.2 42.4 3.2 4.7 11.1 13.6 12 13.6.6 0 .9-.3.5-.6-.3-.3.3-1.5 1.3-2.6 2.9-3.1 4.7-9.6 4.4-16.3-.1-3.3 0-5.4.3-4.8.3.7 1.1 1.3 1.9 1.3.8 0 1.4.4 1.4.9 0 1.3 8.1 3 11.2 2.4 3.2-.6 7.8-5.3 8.1-8.2.1-1.1.5-2.1.9-2.1s.3-1.1-.2-2.4c-.5-1.3-.6-2.6-.4-2.9.3-.3-.2-2.1-1-4.1-1.6-3.9-1.3-4.5 1.1-2.1.8.8 1.9 1.3 2.4 1 .5-.4.9-.2.9.2 0 .5 1.6 1 3.5 1.1 8.3.6 15.7-7.2 15-15.5-.2-2.5-1.1-5.4-2.1-6.4-1.7-1.9-1.7-1.9 1.9-.4 4.7 1.9 7.8 1.9 12.1-.1 3.9-1.9 7.6-7.8 7.6-12.1 0-1.6-.9-4.6-2-6.8-1.1-2.1-1.9-4-1.7-4.1.1-.2 2.3.2 4.7.7 2.5.6 6.4.8 8.8.5 4.3-.5 11.2-4 11.2-5.6 0-1.3-4.8-5.7-9-8.2-1.9-1.2-3.7-2.5-4-2.8-.3-.3-6.1-4.2-13-8.7-6.9-4.5-12.9-8.6-13.5-9.1-.5-.4-1.8-1.1-2.7-1.5-1-.3-4.3-2.2-7.3-4.2-3.1-1.9-5.8-3.5-6.1-3.5-.2 0-1-.5-1.7-1-1.6-1.4-17.6-10.7-28-16.4-4.5-2.4-11-6-14.4-7.9-3.4-2-7.2-3.9-8.5-4.3-1.3-.3-2.5-1-2.8-1.3-.6-.9-11.8-6.1-12.9-6.1-.4 0-6.3-5.5-13.1-12.1-14.1-13.9-18.8-16.7-28.5-16.6-3.3 0-8 .7-10.5 1.5z"/></svg>